HIERARCHY
ROOT Hips
{
	OFFSET	0.00	0.00	0.00
	CHANNELS 6 Xposition Yposition Zposition Zrotation Xrotation Yrotation
	JOINT LeftUpLeg
	{
		OFFSET	 0.126116	-0.065224	 0.014019
		CHANNELS 3 Zrotation Xrotation Yrotation
		JOINT LeftLeg
		{
			OFFSET	 0.000000	 0.569914	 0.000000
			CHANNELS 3 Zrotation Xrotation Yrotation
			JOINT LeftFoot
			{
				OFFSET	 0.000000	 0.544423	 0.000000
				CHANNELS 3 Zrotation Xrotation Yrotation
				JOINT LeftToeBase
				{
					OFFSET	 0.000000	 0.207117	 0.000000
					CHANNELS 3 Zrotation Xrotation Yrotation
					End Site
					{
						OFFSET	 0.000000	 0.207117	 0.000000
					}
				}
			}
		}
	}
	JOINT RightUpLeg
	{
		OFFSET	-0.124023	-0.065224	 0.008373
		CHANNELS 3 Zrotation Xrotation Yrotation
		JOINT RightLeg
		{
			OFFSET	 0.000000	 0.570047	 0.000000
			CHANNELS 3 Zrotation Xrotation Yrotation
			JOINT RightFoot
			{
				OFFSET	 0.000000	 0.544354	 0.000000
				CHANNELS 3 Zrotation Xrotation Yrotation
				JOINT RightToeBase
				{
					OFFSET	 0.000000	 0.207540	 0.000000
					CHANNELS 3 Zrotation Xrotation Yrotation
					End Site
					{
						OFFSET	 0.000000	 0.207540	 0.000000
					}
				}
			}
		}
	}
	JOINT Spine
	{
		OFFSET	 0.000184	 0.117403	 0.007763
		CHANNELS 3 Zrotation Xrotation Yrotation
		JOINT Spine1
		{
			OFFSET	 0.000000	 0.137269	 0.000000
			CHANNELS 3 Zrotation Xrotation Yrotation
			JOINT Spine2
			{
				OFFSET	 0.000000	 0.156879	 0.000000
				CHANNELS 3 Zrotation Xrotation Yrotation
				JOINT LeftShoulder
				{
					OFFSET	 0.080501	 0.160143	 0.002496
					CHANNELS 3 Zrotation Xrotation Yrotation
					JOINT LeftArm
					{
						OFFSET	 0.000000	 0.164363	 0.000000
						CHANNELS 3 Zrotation Xrotation Yrotation
						JOINT LeftForeArm
						{
							OFFSET	 0.000000	 0.364576	 0.000000
							CHANNELS 3 Zrotation Xrotation Yrotation
							JOINT LeftHand
							{
								OFFSET	 0.000000	 0.360812	 0.000000
								CHANNELS 3 Zrotation Xrotation Yrotation
								JOINT LeftHandIndex1
								{
									OFFSET	 0.000000	 0.086006	 0.000000
									CHANNELS 3 Zrotation Xrotation Yrotation
									JOINT LeftHandIndex2
									{
										OFFSET	 0.000000	 0.047237	 0.000000
										CHANNELS 3 Zrotation Xrotation Yrotation
										JOINT LeftHandIndex3
										{
											OFFSET	-0.004284	 0.038165	 0.000551
											CHANNELS 3 Zrotation Xrotation Yrotation
											End Site
											{
												OFFSET	-0.004284	 0.038165	 0.000551
											}
										}
									}
								}
							}
						}
					}
				}
				JOINT Neck
				{
					OFFSET	 0.000000	 0.176489	 0.000000
					CHANNELS 3 Zrotation Xrotation Yrotation
					JOINT Head
					{
						OFFSET	 0.000000	 0.077941	 0.001747
						CHANNELS 3 Zrotation Xrotation Yrotation
						End Site
						{
							OFFSET	 0.000000	 0.077941	 0.001747
						}
					}
				}
				JOINT RightShoulder
				{
					OFFSET	-0.080363	 0.159706	-0.000306
					CHANNELS 3 Zrotation Xrotation Yrotation
					JOINT RightArm
					{
						OFFSET	 0.000000	 0.164196	 0.000000
						CHANNELS 3 Zrotation Xrotation Yrotation
						JOINT RightForeArm
						{
							OFFSET	 0.000000	 0.365611	 0.000000
							CHANNELS 3 Zrotation Xrotation Yrotation
							JOINT RightHand
							{
								OFFSET	 0.000000	 0.360648	 0.000000
								CHANNELS 3 Zrotation Xrotation Yrotation
								JOINT RightHandIndex1
								{
									OFFSET	 0.000000	 0.069977	 0.000000
									CHANNELS 3 Zrotation Xrotation Yrotation
									JOINT RightHandIndex2
									{
										OFFSET	 0.000000	 0.052305	 0.000000
										CHANNELS 3 Zrotation Xrotation Yrotation
										JOINT RightHandIndex3
										{
											OFFSET	 0.009002	 0.042196	 0.000782
											CHANNELS 3 Zrotation Xrotation Yrotation
											End Site
											{
												OFFSET	 0.009002	 0.042196	 0.000782
											}
										}
									}
								}
							}
						}
					}
				}
			}
		}
	}
}
MOTION
Frames:    6
Frame Time: 0.03333334
-0.000866	 1.269508	-0.008690	-0.043670	 3.225082	 178.796100	-176.889100	 2.841578	-21.970500	 2.980020	-14.752880	 2.842746	-5.682245	 68.826420	 6.774770	 1.331492	 28.938720	-2.729976	 176.316300	 4.034185	 25.493610	-5.051331	-16.197360	-6.455632	 3.167698	 70.082320	-1.919847	-1.305365	 28.580680	 2.603489	-1.255660	 4.154304	 9.473256	-1.348970	 1.168769	 3.904619	-1.134142	 1.854827	-15.948830	-113.447100	 5.123923	 92.999590	 15.809630	 51.906510	 30.459620	 5.122023	-0.264325	-0.066918	 9.861363	 0.083786	 16.627940	-6.580301	 5.266122	 0.000000	 0.000000	 0.000000	 0.000000	 0.000000	 0.000000	 0.000000	 3.834346	-0.654238	-0.251503	 3.229988	 0.676371	-2.373972	 114.205000	-4.423264	-88.486190	-41.574740	 10.052740	 47.090390	-85.210030	-2.244909	-2.011529	-26.071380	-13.757360	-49.332410	-0.359780	 10.582420	 0.744568	 11.977790	 9.317284	-2.096060	-8.359142	 3.150323	 0.104225
-0.000738	 1.269514	-0.008851	 0.023877	 3.202560	 178.735700	-176.797200	 2.885925	-22.033660	 2.999525	-14.845030	 2.821778	-5.790862	 68.873010	 6.865931	 1.331492	 28.938720	-2.729976	 176.397900	 4.019733	 25.459070	-5.028714	-16.128830	-6.492054	 3.068439	 70.075280	-1.798162	-1.305382	 28.580780	 2.599016	-1.269879	 4.236814	 9.986888	-1.291996	 0.703105	 3.932654	-1.126162	 2.379780	-15.908620	-113.447200	 5.114432	 92.997510	 15.929070	 51.748660	 30.416970	 5.133728	-0.263884	-0.052645	 9.486065	 0.466644	 16.505050	-6.580301	 5.266122	 0.000000	 0.000000	 0.000000	 0.000000	 0.000000	 0.000000	 0.000000	 3.849782	-0.689653	-0.256305	 3.288278	 0.755175	-2.408284	 114.202200	-4.404470	-88.499790	-40.715620	 8.050598	 45.993180	-82.684340	-2.233695	-1.927002	-28.016850	-11.791230	-48.239790	-0.359777	 10.582320	 0.744568	 11.977790	 9.317190	-2.096041	-8.359140	 3.150273	 0.104230
-0.000590	 1.269522	-0.009029	 0.091628	 3.179378	 178.678400	-176.704300	 2.928603	-22.093160	 3.018689	-14.935560	 2.802290	-5.897947	 68.920660	 6.953930	 1.331492	 28.938720	-2.729976	 176.480300	 4.003216	 25.426400	-5.005474	-16.058330	-6.526049	 2.972754	 70.067330	-1.682120	-1.305398	 28.580870	 2.594803	-1.248404	 4.282958	 10.453310	-1.289758	 0.311106	 3.956464	-1.096334	 2.866877	-15.847620	-113.447400	 5.105505	 92.995550	 16.023560	 51.580970	 30.388050	 5.144225	-0.263409	-0.039194	 9.120916	 0.838915	 16.347110	-6.580301	 5.266122	 0.000000	 0.000000	 0.000000	 0.000000	 0.000000	 0.000000	 0.000000	 3.864312	-0.723001	-0.260819	 3.343308	 0.834518	-2.435326	 114.199700	-4.386744	-88.512610	-40.121670	 5.886854	 45.150270	-79.506680	-2.213606	-1.817017	-30.508770	-9.872786	-47.022900	-0.359775	 10.582230	 0.744568	 11.977790	 9.317102	-2.096023	-8.359138	 3.150227	 0.104234
-0.000398	 1.269534	-0.009256	 0.172982	 3.151671	 178.613500	-176.592200	 2.977648	-22.160270	 3.041309	-15.042360	 2.780617	-6.023864	 68.978480	 7.055551	 1.331492	 28.938720	-2.729976	 176.579700	 3.980240	 25.389550	-4.976668	-15.970870	-6.564131	 2.862247	 70.055980	-1.549501	-1.305417	 28.580970	 2.590035	-1.233603	 4.369793	 10.958910	-1.276535	-0.223197	 3.977028	-1.065093	 3.483576	-15.744610	-113.447500	 5.095417	 92.993340	 16.120160	 51.369750	 30.362850	 5.155742	-0.263080	-0.023960	 8.680811	 1.274554	 16.099570	-6.580301	 5.266122	 0.000000	 0.000000	 0.000000	 0.000000	 0.000000	 0.000000	 0.000000	 3.880759	-0.760753	-0.265918	 3.405784	 0.931903	-2.458124	 114.196700	-4.366705	-88.527110	-39.744830	 3.143271	 44.336970	-74.973220	-2.173457	-1.658398	-34.128910	-7.676147	-45.468350	-0.359771	 10.582130	 0.744568	 11.977790	 9.317002	-2.096003	-8.359138	 3.150174	 0.104240
-0.000238	 1.269546	-0.009444	 0.237642	 3.128502	 178.564100	-176.505200	 3.016626	-22.194150	 3.058894	-15.125270	 2.764488	-6.080317	 69.025790	 7.086596	 1.331492	 28.938720	-2.729976	 176.657800	 3.961078	 25.369690	-4.953151	-15.899360	-6.592675	 2.797938	 70.045390	-1.471645	-1.305431	 28.581050	 2.586427	-1.220129	 4.442687	 11.319080	-1.269607	-0.661962	 3.985653	-1.039505	 3.987294	-15.635620	-113.447700	 5.087751	 92.991650	 16.193480	 51.195460	 30.340320	 5.163438	-0.262581	-0.012456	 8.318046	 1.615479	 15.850130	-6.580301	 5.266122	 0.000000	 0.000000	 0.000000	 0.000000	 0.000000	 0.000000	 0.000000	 3.893198	-0.789311	-0.269768	 3.453178	 1.012417	-2.468256	 114.194500	-4.351550	-88.538060	-39.704710	 0.870865	 43.765320	-70.863890	-2.125399	-1.515448	-37.450330	-6.031250	-44.185280	-0.359769	 10.582050	 0.744568	 11.977790	 9.316927	-2.095988	-8.359135	 3.150133	 0.104243
-0.000086	 1.269560	-0.009624	 0.297931	 3.106314	 178.519800	-176.422600	 3.052154	-22.235470	 3.074957	-15.200930	 2.750180	-6.159487	 69.068730	 7.145483	 1.331492	 28.938720	-2.729976	 176.731400	 3.942416	 25.346990	-4.930661	-15.831000	-6.617976	 2.726671	 70.034510	-1.387023	-1.305443	 28.581130	 2.583193	-1.206120	 4.514417	 11.619940	-1.265496	-1.083347	 3.985768	-1.015377	 4.471468	-15.507810	-113.447800	 5.080908	 92.990170	 16.265200	 51.028590	 30.313210	 5.170204	-0.262209	-0.002145	 7.959876	 1.930935	 15.564020	-6.580301	 5.266122	 0.000000	 0.000000	 0.000000	 0.000000	 0.000000	 0.000000	 0.000000	 3.904348	-0.814917	-0.273215	 3.495778	 1.091153	-2.470425	 114.192600	-4.337954	-88.547910	-39.879370	-1.310578	 43.247470	-66.653370	-2.064945	-1.371486	-40.873390	-4.589466	-42.959220	-0.359767	 10.581990	 0.744568	 11.977790	 9.316859	-2.095974	-8.359134	 3.150098	 0.104247
